<?xml version="1.0" encoding="utf-8"?>
<!-- Generator: Adobe Illustrator 26.0.2, SVG Export Plug-In . SVG Version: 6.00 Build 0)  -->
<svg version="1.1" id="Lager_1" xmlns="http://www.w3.org/2000/svg" xmlns:xlink="http://www.w3.org/1999/xlink" x="0px" y="0px"
	 viewBox="0 0 566.9 566.9" style="enable-background:new 0 0 566.9 566.9;" xml:space="preserve">
<style type="text/css">
	
		.st0{clip-path:url(#SVGID_00000176012115670713842100000000873393536853930880_);fill:none;stroke:#1D1D1B;stroke-width:2.526;stroke-miterlimit:10;}
	
		.st1{clip-path:url(#SVGID_00000176012115670713842100000000873393536853930880_);fill:none;stroke:#1D1D1B;stroke-width:2.526;stroke-linecap:round;stroke-linejoin:round;stroke-miterlimit:10;}
	.st2{clip-path:url(#SVGID_00000176012115670713842100000000873393536853930880_);fill:#1D1D1B;}
</style>
<g>
	<defs>
		<rect id="SVGID_1_" x="251.4" y="249.7" width="62.2" height="54.4"/>
	</defs>
	<clipPath id="SVGID_00000103258000188857340580000011638566154906931872_">
		<use xlink:href="#SVGID_1_"  style="overflow:visible;"/>
	</clipPath>
	
		<path style="clip-path:url(#SVGID_00000103258000188857340580000011638566154906931872_);fill:none;stroke:#1D1D1B;stroke-width:2.526;stroke-miterlimit:10;" d="
		M312.3,267.7c0,0,0,6.8-6.7,6.8c-6.7,0-6.7-6.8-6.7-6.8H312.3z M267.8,267.7c0,0,0,6.8-6.7,6.8c-6.7,0-6.7-6.8-6.7-6.8H267.8z
		 M269.5,282h27.8 M287.3,294.6h-7.8c-5.5,0-10-4.5-10-10v-25.4h27.8v25.4C297.3,290.1,292.8,294.6,287.3,294.6z M251.8,291.9
		l8.6,2.9l-0.5,9.4 M253.3,300.3c5.2-5,11.3-8.5,17.6-10.5 M295.8,289.7c2.9,1,5.6,2.3,8,4.1"/>
	
		<path style="clip-path:url(#SVGID_00000103258000188857340580000011638566154906931872_);fill:none;stroke:#1D1D1B;stroke-width:2.526;stroke-linecap:round;stroke-linejoin:round;stroke-miterlimit:10;" d="
		M304.9,251c0,4.5-3.7,8.2-8.2,8.2 M270.1,259.2c-4.5,0-8.2-3.7-8.2-8.2 M292.9,275.9c-0.9-0.9-2.5-0.9-3.4,0 M277.3,275.9
		c-0.9-0.9-2.5-0.9-3.4,0"/>
	<path style="clip-path:url(#SVGID_00000103258000188857340580000011638566154906931872_);fill:#1D1D1B;" d="M297.3,259.2v15.1
		l-3.1-1.4c-5.3-2.5-8.8-7.8-8.8-13.7H297.3z"/>
	<path style="clip-path:url(#SVGID_00000103258000188857340580000011638566154906931872_);fill:#1D1D1B;" d="M279.2,284.6
		c-0.8,0.8-1.3,1.9-1.3,3.1c0,0,0,0,0,0h4.2L279.2,284.6z"/>
	<path style="clip-path:url(#SVGID_00000103258000188857340580000011638566154906931872_);fill:#1D1D1B;" d="M287.6,284.6
		c0.8,0.8,1.3,1.9,1.3,3.1c0,0,0,0,0,0h-4.2L287.6,284.6z"/>
	
		<path style="clip-path:url(#SVGID_00000103258000188857340580000011638566154906931872_);fill:none;stroke:#1D1D1B;stroke-width:2.526;stroke-miterlimit:10;" d="
		M261.5,289.8l0.9-6 M259.8,299.3l5.7,1.5 M255.2,287.2l10.9,4.5l2.8,8"/>
</g>
</svg>
