<?xml version="1.0" encoding="utf-8"?>
<!-- Generator: Adobe Illustrator 26.0.2, SVG Export Plug-In . SVG Version: 6.00 Build 0)  -->
<svg version="1.1" id="Lager_1" xmlns="http://www.w3.org/2000/svg" xmlns:xlink="http://www.w3.org/1999/xlink" x="0px" y="0px"
	 viewBox="0 0 566.9 566.9" style="enable-background:new 0 0 566.9 566.9;" xml:space="preserve">
<style type="text/css">
	.st0{clip-path:url(#SVGID_00000045581309588628032100000016530813072502374586_);fill:none;stroke:#1D1D1B;stroke-width:2.53;}
	
		.st1{clip-path:url(#SVGID_00000045581309588628032100000016530813072502374586_);fill:none;stroke:#1D1D1B;stroke-width:2.53;stroke-linecap:round;stroke-linejoin:round;stroke-miterlimit:10;}
	.st2{clip-path:url(#SVGID_00000045581309588628032100000016530813072502374586_);fill:#98D1C7;}
	
		.st3{clip-path:url(#SVGID_00000045581309588628032100000016530813072502374586_);fill:none;stroke:#1D1D1B;stroke-width:2.53;stroke-miterlimit:10;}
	.st4{fill:none;stroke:#1D1D1B;stroke-width:2.53;stroke-linecap:round;}
	
		.st5{clip-path:url(#SVGID_00000141433731349515325150000010480841437521723052_);fill:none;stroke:#1D1D1B;stroke-width:2.53;stroke-linecap:round;}
</style>
<g>
	<defs>
		<rect id="SVGID_1_" x="238.8" y="250.3" width="85.8" height="53.3"/>
	</defs>
	<clipPath id="SVGID_00000109742774011413082670000016267077637766941621_">
		<use xlink:href="#SVGID_1_"  style="overflow:visible;"/>
	</clipPath>
	
		<path style="clip-path:url(#SVGID_00000109742774011413082670000016267077637766941621_);fill:none;stroke:#1D1D1B;stroke-width:2.53;" d="
		M267.9,292.6c7.8,0,14-6.3,14-14c0-7.8-6.3-14-14-14c-7.8,0-14,6.3-14,14C253.9,286.4,260.1,292.6,267.9,292.6z"/>
	
		<path style="clip-path:url(#SVGID_00000109742774011413082670000016267077637766941621_);fill:none;stroke:#1D1D1B;stroke-width:2.53;stroke-linecap:round;stroke-linejoin:round;stroke-miterlimit:10;" d="
		M259.5,277.2c0.8-0.8,2.2-0.8,3.1,0 M272.3,277.2c0.8-0.8,2.2-0.8,3.1,0"/>
	
		<path style="clip-path:url(#SVGID_00000109742774011413082670000016267077637766941621_);fill:none;stroke:#1D1D1B;stroke-width:2.53;stroke-linecap:round;stroke-linejoin:round;stroke-miterlimit:10;" d="
		M263.6,283.8c1,1.8,6.4,2.3,8.4-0.2"/>
	<path style="clip-path:url(#SVGID_00000109742774011413082670000016267077637766941621_);fill:#98D1C7;" d="M262.9,293.5
		c1-0.3,2-0.3,3-0.2c0.1-0.3,0.2-0.6,0.4-0.9c0.9-1.7,2.4-2.8,3.9-3.1c0.9-0.2,1.7-0.2,2.6-0.1c0.4,0,0.7,0.1,1.1,0.1
		c0-0.1,0.1-0.3,0.1-0.4c0.3-1,0.7-1.8,1.2-2.6c0.9-1.3,2.1-2.3,3.4-2.8c1.6-0.7,3.3-0.5,4.9-0.1c0.7,0.2,1.4,0.5,2.1,0.8
		c0,0,0.1,0.1,0.3,0.1c0.7-2.2,1.8-4.2,3.3-5.6c2.4-2.3,5.5-2.4,8.1-0.5c1,0.7,2,1.7,2.8,2.8c1.1-0.5,2.3-0.6,3.5-0.6
		c3.4,0,7.3,1.7,9.1,5.5c2.1-0.5,4.4-0.3,6.4,0.8c2.7,1.5,4.7,5,3.9,8.9c-0.8,4.2-4,5.4-7,5.9c-3.1,0.5-6.3,0.3-9.5,0.3
		c-6.4,0-12.8,0-19.2,0.2c-7.1,0.3-14.2,0.4-21.3,0.4c-1.9,0-4.2,0.3-5.4-2C259.3,297.7,260.5,294.1,262.9,293.5"/>
	
		<path style="clip-path:url(#SVGID_00000109742774011413082670000016267077637766941621_);fill:none;stroke:#1D1D1B;stroke-width:2.53;stroke-miterlimit:10;" d="
		M262.9,293.5c1-0.3,2-0.3,3-0.2c0.1-0.3,0.2-0.6,0.4-0.9c0.9-1.7,2.4-2.8,3.9-3.1c0.9-0.2,1.7-0.2,2.6-0.1c0.4,0,0.7,0.1,1.1,0.1
		c0-0.1,0.1-0.3,0.1-0.4c0.3-1,0.7-1.8,1.2-2.6c0.9-1.3,2.1-2.3,3.4-2.8c1.6-0.7,3.3-0.5,4.9-0.1c0.7,0.2,1.4,0.5,2.1,0.8
		c0,0,0.1,0.1,0.3,0.1c0.7-2.2,1.8-4.2,3.3-5.6c2.4-2.3,5.5-2.4,8.1-0.5c1,0.7,2,1.7,2.8,2.8c1.1-0.5,2.3-0.6,3.5-0.6
		c3.4,0,7.3,1.7,9.1,5.5c2.1-0.5,4.4-0.3,6.4,0.8c2.7,1.5,4.7,5,3.9,8.9c-0.8,4.2-4,5.4-7,5.9c-3.1,0.5-6.3,0.3-9.5,0.3
		c-6.4,0-12.8,0-19.2,0.2c-7.1,0.3-14.2,0.4-21.3,0.4c-1.9,0-4.2,0.3-5.4-2C259.3,297.7,260.5,294.1,262.9,293.5z"/>
</g>
<line class="st4" x1="282.7" y1="274.5" x2="295.3" y2="270.8"/>
<line class="st4" x1="276.5" y1="266.2" x2="285.1" y2="256.2"/>
<line class="st4" x1="255.4" y1="270.4" x2="244.2" y2="263.5"/>
<g>
	<defs>
		<rect id="SVGID_00000174602180745440185060000017126341567815638680_" x="238.8" y="250.3" width="85.8" height="53.3"/>
	</defs>
	<clipPath id="SVGID_00000000214548226540200040000001945555037155561601_">
		<use xlink:href="#SVGID_00000174602180745440185060000017126341567815638680_"  style="overflow:visible;"/>
	</clipPath>
	
		<line style="clip-path:url(#SVGID_00000000214548226540200040000001945555037155561601_);fill:none;stroke:#1D1D1B;stroke-width:2.53;stroke-linecap:round;" x1="265" y1="264.6" x2="262.7" y2="251.6"/>
	
		<line style="clip-path:url(#SVGID_00000000214548226540200040000001945555037155561601_);fill:none;stroke:#1D1D1B;stroke-width:2.53;stroke-linecap:round;" x1="240.1" y1="284" x2="253.1" y2="281.6"/>
	
		<line style="clip-path:url(#SVGID_00000000214548226540200040000001945555037155561601_);fill:none;stroke:#1D1D1B;stroke-width:2.53;stroke-linecap:round;" x1="250.5" y1="300.3" x2="259" y2="290.3"/>
</g>
</svg>
