<?xml version="1.0" encoding="utf-8"?>
<!-- Generator: Adobe Illustrator 26.0.2, SVG Export Plug-In . SVG Version: 6.00 Build 0)  -->
<svg version="1.1" id="Lager_1" xmlns="http://www.w3.org/2000/svg" xmlns:xlink="http://www.w3.org/1999/xlink" x="0px" y="0px"
	 viewBox="0 0 566.9 566.9" style="enable-background:new 0 0 566.9 566.9;" xml:space="preserve">
<style type="text/css">
	
		.st0{clip-path:url(#SVGID_00000105417018798168238690000003991215041487696819_);fill:none;stroke:#1D1D1B;stroke-width:2.53;stroke-linecap:square;stroke-linejoin:round;stroke-miterlimit:10;}
</style>
<g>
	<defs>
		<rect id="SVGID_1_" x="250.5" y="243.3" width="65.8" height="80.3"/>
	</defs>
	<clipPath id="SVGID_00000138543140134533864710000011765388788415759490_">
		<use xlink:href="#SVGID_1_"  style="overflow:visible;"/>
	</clipPath>
	
		<path style="clip-path:url(#SVGID_00000138543140134533864710000011765388788415759490_);fill:none;stroke:#1D1D1B;stroke-width:2.53;stroke-linecap:square;stroke-linejoin:round;stroke-miterlimit:10;" d="
		M309.7,271.7l1.6,5 M299.9,267.3l9.9,4.4l5-2 M280.2,280.7l-0.7,5.1 M287.7,275.2l-7.5,5.5l-5.2-0.8 M300.8,285.1l4.7,2.8
		 M290.2,287.7l10.6-2.6l3-4.8 M299.6,254.5l3.2-4 M299.9,267.3l-0.3-12.8l-4.3-3.2 M309.7,256l-0.7,4.7l4.8,1.1 M286.7,261.3
		l4.9-2.1 M282.8,270.6l3.9-9.3l-2.2-4.7 M263.2,276.5l0.3,6.1 M271.6,265.7l-8.4,10.7l-6,1.1 M256,265.1l-3.7,2.9 M271.6,265.7
		l-15.6-0.7l-2.6-4.4 M275.4,250.3l5.6-1.5 M271.6,265.7l3.8-15.5l-1.9-5.4 M257.9,253.1l5.8,0.8l0.8-6 M290.2,281.1l0.7-1.5
		c3.9-8.2,10.3-14.8,18.1-18.8 M290.7,322l-4.6-15.4c-1.3-4.5-0.7-9.4,1.9-13.4c6-9.4,1-21.9-9.8-24.6l-0.7-0.2
		c-6-1.5-10.8-5.9-12.9-11.6l-0.9-3"/>
</g>
</svg>
